{"title":"Rampage.2009.480p.BRRip.XviD.AC3-LEGi0N","uid":5744115,"size":1494409610,"categoryP":"video","categoryS":"movies","magnet":"?xt=urn:btih:48352b3069fa8fa4577f05c2e914190165e9d032&amp;dn=Rampage.2009.480p.BRRip.XviD.AC3-LEGi0N&amp;tr=udp%3A%2F%2Ftracker.openbittorrent.com%3A80&amp;tr=udp%3A%2F%2Fopen.demonii.com%3A1337&amp;tr=udp%3A%2F%2Ftracker.coppersurfer.tk%3A6969&amp;tr=udp%3A%2F%2Fexodus.desync.com%3A6969","seeders":0,"leechers":0,"uploader":"TvTeam","files":5,"time":1281135707,"description":". \n  &lt;a href=&quot;\nhttp://www.torrentday.com/&quot; rel=&quot;nofollow&quot; target=&quot;_NEW&quot;&gt;\nhttp://www.torrentday.com/&lt;/a&gt;        :     The Hottest Private Tracker On The Net!!!\n\n\n               www . TorrentDay . Com \n(((((((((((((= Enjoy No RAR releases =))))))))))))))))))))\n\n\n...................................NFO:....................................\n\n.[img]http://leetleech.org/images/35337218300716387484.jpg[/img] \n\n[b]Rampage 2009 480p BRRip XviD AC3-LEGi0N\n\n[img]http://leetleech.org/images/48874973695367351744.png[/img]\n[color=red]General[/color]\nFormat:AVI \nFile size: 1.37 GiB\nDuration: 1h 19mn\nOverall bit rate: 2 460 Kbps\nIMDb Rating: 6.4/10   2,007 votes\nGenre: Action | Crime | Drama | Thriller \nRelease Date: 29 April 2010             \nIMDb Link: http://www.imdb.com/title/tt1337057/\nSource: 720p Bluray x264-CiNEFiLE \n\n[color=red]Video[/color]\nFormat: MPEG-4 Visual\nFormat profile: Streaming Video@L1\nFormat settings, BVOP: Yes\nFormat settings, QPel: No\nFormat settings, GMC: No warppoints\nFormat settings, Matrix: Default (H.263)\nMuxing mode: Packed bitstream\nCodec ID: XVID\nBit rate: 2 003 Kbps\nWidth: 720 pixels\nHeight: 304 pixels\nDisplay aspect ratio: 2.35\nFrame rate: 23.976 fps\nResolution: 24 bits\nColorimetry: 4:2:0\nScan type: Progressive\nBits/(Pixel*Frame): 0.382\nStream size: 1.11 GiB (81%)\n\n[color=red]Audio[/color]\nFormat: AC-3\nBit rate mode: Constant\nBit rate: 448 Kbps\nChannel(s): 6 channels\nSampling rate: 48.0 KHz\nStream size: 255 MiB (18%) \n\n[img]http://leetleech.org/images/89524873606771859129.png[/img]\nA man with a thirst for revenge builds a full body armor from \nKevlar and goes on a killing spree.          \n                                   \n[img]http://leetleech.org/images/84434050717770922575.png[/img]\nBrendan Fletcher\t... \tBill Williamson\nShaun Sipos\t... \tEvan Drince\nMichael Par\t... \tSheriff Melvoy\nMatt Frewer\t... \tMr. Williamson\nLynda Boyd\t... \tMrs. Williamson\nRobert Clarke\t... \tEvan's Father\nMalcolm Stewart\t... \tBank Manager\nSteffen Mennekes\t... \tCashier\nKatey Grace\t... \tBank Teller\nLaurie Brunetti\t... \tBody Shop Boss (as Laurie J. Brunetti)\nMark Brandon\t... \tReporter #1\nJulie Patzwald\t... \tBeauty Staff #1\nKatharine Isabelle\t... \tBeauty Staff #2\nColette Perry\t... \tBeauty Staff #3\nMichaela Mann\t... \tWaitress \n\n[color=red]GREETZ[/color]\nNoir | xXTHORNXx | bigimac | LUSi |\n\nkempas | KaN1vE | mike160 | skillz |\n\nLungbuster | Sheikh | DiLLoN1369  |\n\n0B5C3N3 | FLAWL3SS | AND ALL P2P![/b]\n\n[color=red]SAMPLE INCLUDED[/color]\n\n[img]http://leetleech.org/images/95521316153253938506.png[/img]\n[img]http://leetleech.org/images/83736647113657541413.png[/img]\n[img]http://leetleech.org/images/20072107484950731279.png[/img] \n[img]http://leetleech.org/images/13318324874596489545.png[/img] \n[img]http://leetleech.org/images/95214805991382547412.png[/img]\n[img]http://leetleech.org/images/68110722817150072699.png[/img]\n[img]http://leetleech.org/images/12755021538703799215.png[/img]","torrent":{"xt":"urn:btih:48352b3069fa8fa4577f05c2e914190165e9d032","amp;dn":"Rampage.2009.480p.BRRip.XviD.AC3-LEGi0N","amp;tr":["udp%3A%2F%2Ftracker.openbittorrent.com%3A80","udp%3A%2F%2Fopen.demonii.com%3A1337","udp%3A%2F%2Ftracker.coppersurfer.tk%3A6969","udp%3A%2F%2Fexodus.desync.com%3A6969"],"infoHash":"48352b3069fa8fa4577f05c2e914190165e9d032","infoHashBuffer":{"type":"Buffer","data":[72,53,43,48,105,250,143,164,87,127,5,194,233,20,25,1,101,233,208,50]},"announce":[],"urlList":[]}}